<svg width="54" height="36" viewBox="0 0 54 36" fill="none" xmlns="http://www.w3.org/2000/svg">
<path d="M20 33L23 36L1 36L4 33L20 33Z" fill="white"/>
<path d="M16 29L19 32L5 32L7.99998 29L16 29Z" fill="white"/>
<path d="M17 2.99999L20 5.99999V32L17 29V2.99999Z" fill="white"/>
<path d="M21 6.99999L24 9.99999V36L21 33V6.99999Z" fill="white"/>
<path d="M20 2V5L17 2V0H20V2Z" fill="white"/>
<path d="M24 2V9L21 6V0H24V2Z" fill="white"/>
<path d="M7 2.99999L4 5.99999V32L7 29V2.99999Z" fill="white"/>
<path d="M3 6.99999L2.14577e-06 9.99999V36L3 33V6.99999Z" fill="white"/>
<path d="M4 2V5L7 2V0H4V2Z" fill="white"/>
<path d="M0 2V9L3 6V0H0V2Z" fill="white"/>
<path d="M51 33L54 36L27 36L30 33L51 33Z" fill="white"/>
<path d="M47 29L50 32L34 32L37 29L47 29Z" fill="white"/>
<path d="M37 7L34 3.99999L50 4L47 7L37 7Z" fill="white"/>
<path d="M51 3L54 7.15256e-07L27 5.79321e-08L30 3L51 3Z" fill="white"/>
<path d="M33 4L30 7V4H33Z" fill="white"/>
<path d="M30 29L33 32L30 32L30 29Z" fill="white"/>
<path d="M54 35V1L51 4V32L54 35Z" fill="white"/>
<path d="M50 31V5L47 8V28L50 31Z" fill="white"/>
<path d="M33 31V5L30 8V28L33 31Z" fill="white"/>
<path d="M33 31V5L30 8V28L33 31Z" fill="white"/>
<path d="M34 31V5L37 8V28L34 31Z" fill="white"/>
</svg>
